<?xml version="1.0" encoding="iso-8859-1"?>
<!-- Generator: Adobe Illustrator 19.0.0, SVG Export Plug-In . SVG Version: 6.00 Build 0)  -->
<svg version="1.1" id="Layer_1" xmlns="http://www.w3.org/2000/svg" xmlns:xlink="http://www.w3.org/1999/xlink" x="0px" y="0px"
	 viewBox="0 0 512 512" style="enable-background:new 0 0 512 512;" xml:space="preserve">
<path style="fill:#C2B8B9;" d="M64.563,126.301c-12.439,0-22.522,10.084-22.522,22.522v33.282h45.044v-33.282
	C87.085,136.385,77.001,126.301,64.563,126.301z"/>
<path style="fill:#463836;" d="M481.72,160.084c12.112,0,22.022,9.91,22.022,22.021v286.499c0,12.112-9.91,22.022-22.022,22.022
	H30.28c-12.112,0-22.022-9.91-22.022-22.022V182.106c0-12.112,9.91-22.021,22.022-22.021H481.72z"/>
<circle style="fill:#ECE7EA;" cx="154.646" cy="325.357" r="101.354"/>
<g>
	<path style="fill:#8B7E7F;" d="M154.65,392.921c-37.256,0-67.566-30.31-67.566-67.566s30.31-67.566,67.566-67.566
		s67.566,30.31,67.566,67.566S191.906,392.921,154.65,392.921z"/>
	<circle style="fill:#8B7E7F;" cx="326.381" cy="341.102" r="25.336"/>
	<circle style="fill:#8B7E7F;" cx="433.361" cy="341.102" r="25.336"/>
</g>
<rect x="301.045" y="203.148" style="fill:#FFFFFF;" width="157.652" height="78.826"/>
<g>
	<polygon style="fill:#8B7E7F;" points="301.044,400.218 301.044,445.582 353.595,445.582 364.606,422.9 353.595,400.218 	"/>
	<polygon style="fill:#8B7E7F;" points="458.698,400.218 406.147,400.218 395.136,422.9 406.147,445.582 458.698,445.582 	"/>
</g>
<rect x="353.599" y="400.219" style="fill:#C2B8B9;" width="52.551" height="45.364"/>
<path d="M481.72,151.825H95.343v-3.003c0-7.721-2.864-14.781-7.576-20.189l370.516-99.28c4.405-1.18,7.019-5.709,5.84-10.114
	c-1.18-4.405-5.707-7.018-10.114-5.84L63.361,118.073c-16.417,0.634-29.578,14.181-29.578,30.75v3.003H30.28
	c-16.697,0-30.28,13.583-30.28,30.28v286.5c0,16.697,13.583,30.28,30.28,30.28H481.72c16.697,0,30.28-13.583,30.28-30.28v-286.5
	C512,165.408,498.417,151.825,481.72,151.825z M50.299,148.822c0-7.858,6.388-14.252,14.245-14.263c0.004,0,0.009,0.001,0.014,0.001
	c0.007,0,0.014-0.001,0.021-0.001c7.857,0.009,14.248,6.404,14.248,14.263v3.003H50.299V148.822z M495.484,468.604
	c0,7.59-6.174,13.763-13.763,13.763H30.28c-7.59,0-13.763-6.174-13.763-13.763v-286.5c0-7.59,6.174-13.763,13.763-13.763H481.72
	c7.59,0,13.763,6.174,13.763,13.763V468.604z"/>
<path d="M154.652,215.748c-60.438,0-109.607,49.17-109.607,109.607s49.17,109.607,109.607,109.607s109.607-49.168,109.607-109.607
	S215.088,215.748,154.652,215.748z M154.652,418.445c-51.331,0-93.09-41.76-93.09-93.09s41.76-93.09,93.09-93.09
	s93.09,41.759,93.09,93.09S205.981,418.445,154.652,418.445z"/>
<path d="M154.652,249.53c-41.81,0-75.824,34.014-75.824,75.823c0,41.81,34.014,75.824,75.824,75.824s75.824-34.014,75.824-75.824
	C230.475,283.544,196.46,249.53,154.652,249.53z M154.652,384.662c-32.703,0-59.308-26.605-59.308-59.308
	c0-32.702,26.605-59.307,59.308-59.307s59.308,26.605,59.308,59.307C213.959,358.056,187.353,384.662,154.652,384.662z"/>
<path d="M326.381,374.692c18.524,0,33.595-15.072,33.595-33.595c0-18.525-15.072-33.596-33.595-33.596
	c-18.523,0-33.595,15.072-33.595,33.596C292.786,359.621,307.857,374.692,326.381,374.692z M326.381,324.018
	c9.417,0,17.079,7.661,17.079,17.08c0,9.418-7.661,17.079-17.079,17.079c-9.417,0-17.079-7.661-17.079-17.079
	C309.302,331.68,316.964,324.018,326.381,324.018z"/>
<path d="M433.361,307.501c-18.525,0-33.595,15.072-33.595,33.596s15.072,33.595,33.595,33.595c18.523,0,33.595-15.072,33.595-33.595
	C466.956,322.573,451.885,307.501,433.361,307.501z M433.361,358.176c-9.418,0-17.079-7.661-17.079-17.079
	c0-9.418,7.661-17.08,17.079-17.08s17.079,7.661,17.079,17.08C450.44,350.515,442.778,358.176,433.361,358.176z"/>
<path d="M458.698,194.892H301.044c-4.561,0-8.258,3.697-8.258,8.258v78.827c0,4.561,3.697,8.258,8.258,8.258h157.654
	c4.561,0,8.258-3.697,8.258-8.258V203.15C466.956,198.59,463.259,194.892,458.698,194.892z M450.44,273.718h-96.093V238.91
	c0-4.561-3.697-8.258-8.258-8.258c-4.561,0-8.258,3.697-8.258,8.258v34.808h-28.528v-62.311h141.138v62.311H450.44z"/>
<path d="M458.698,391.96H301.044c-4.561,0-8.258,3.697-8.258,8.258v45.364c0,4.561,3.697,8.258,8.258,8.258h157.654
	c4.561,0,8.258-3.697,8.258-8.258v-45.364C466.956,395.657,463.259,391.96,458.698,391.96z M397.889,408.476v28.848h-36.036v-28.848
	H397.889z M309.302,408.476h36.035v28.848h-36.035V408.476z M450.44,437.323h-36.035v-28.848h36.035V437.323z"/>
<path d="M154.652,283.313c-4.561,0-8.258,3.697-8.258,8.258v67.566c0,4.561,3.697,8.258,8.258,8.258s8.258-3.697,8.258-8.258
	v-67.566C162.91,287.01,159.212,283.313,154.652,283.313z"/>
<path d="M120.868,292.383c-4.561,0-8.258,3.697-8.258,8.258v49.427c0,4.561,3.697,8.258,8.258,8.258s8.258-3.697,8.258-8.258
	v-49.427C129.126,296.08,125.429,292.383,120.868,292.383z"/>
<path d="M188.434,292.383c-4.561,0-8.258,3.697-8.258,8.258v49.427c0,4.561,3.697,8.258,8.258,8.258s8.258-3.697,8.258-8.258
	v-49.427C196.692,296.08,192.994,292.383,188.434,292.383z"/>
<g>
</g>
<g>
</g>
<g>
</g>
<g>
</g>
<g>
</g>
<g>
</g>
<g>
</g>
<g>
</g>
<g>
</g>
<g>
</g>
<g>
</g>
<g>
</g>
<g>
</g>
<g>
</g>
<g>
</g>
</svg>
