<?xml version="1.0" encoding="UTF-8" standalone="no"?>
<svg
   xmlns:dc="http://purl.org/dc/elements/1.1/"
   xmlns:cc="http://creativecommons.org/ns#"
   xmlns:rdf="http://www.w3.org/1999/02/22-rdf-syntax-ns#"
   xmlns:svg="http://www.w3.org/2000/svg"
   xmlns="http://www.w3.org/2000/svg"
   xmlns:sodipodi="http://sodipodi.sourceforge.net/DTD/sodipodi-0.dtd"
   xmlns:inkscape="http://www.inkscape.org/namespaces/inkscape"
   version="1.0"
   width="913.77997"
   height="288.09457"
   viewBox="0 0 6686.1943 2109.9235"
   preserveAspectRatio="xMidYMid meet"
   id="svg116"
   sodipodi:docname="logo-red.svg"
   inkscape:version="1.0rc1 (09960d6, 2020-04-09)">
  <metadata
     id="metadata122">
    <rdf:RDF>
      <cc:Work
         rdf:about="">
        <dc:format>image/svg+xml</dc:format>
        <dc:type
           rdf:resource="http://purl.org/dc/dcmitype/StillImage" />
        <dc:title></dc:title>
      </cc:Work>
    </rdf:RDF>
  </metadata>
  <defs
     id="defs120">
    <rect
       id="rect36"
       height="342.60577"
       width="148.95903"
       y="2354.986"
       x="3294.0425" />
  </defs>
  <sodipodi:namedview
     inkscape:document-rotation="0"
     pagecolor="#ffffff"
     bordercolor="#666666"
     borderopacity="1"
     objecttolerance="10"
     gridtolerance="10"
     guidetolerance="10"
     inkscape:pageopacity="0"
     inkscape:pageshadow="2"
     inkscape:window-width="1480"
     inkscape:window-height="707"
     id="namedview118"
     showgrid="false"
     fit-margin-top="10"
     fit-margin-left="10"
     fit-margin-right="10"
     fit-margin-bottom="10"
     lock-margins="true"
     inkscape:zoom="0.98331981"
     inkscape:cx="570.68502"
     inkscape:cy="65.956576"
     inkscape:window-x="0"
     inkscape:window-y="23"
     inkscape:window-maximized="1"
     inkscape:current-layer="layer101" />
  <g
     id="layer101"
     fill="#f33535"
     stroke="none"
     transform="translate(-891.39052,-1163.3138)">
    <path
       d="m 2006,3184.0293 c -14,-14 -16,-103 -14,-866 3,-839 3,-851 23,-864 16,-11 25,-11 45,-1 l 25,13 3,851 c 2,764 0,853 -14,867 -8,9 -24,16 -34,16 -10,0 -26,-7 -34,-16 z"
       id="path85"
       inkscape:connector-curvature="0" />
    <path
       d="m 1570,2960.0293 c -20,-20 -20,-33 -20,-638 0,-671 -1,-655 55,-654 56,0 55,-18 55,657 0,590 -1,623 -18,638 -25,22 -48,21 -72,-3 z"
       id="path87"
       inkscape:connector-curvature="0" />
    <path
       d="m 2220,2960.0293 c -20,-20 -20,-33 -20,-639 0,-550 2,-621 16,-635 16,-16 27,-20 54,-16 40,4 40,11 40,656 v 623 l -22,15 c -30,21 -44,20 -68,-4 z"
       id="path89"
       inkscape:connector-curvature="0" />
    <path
       d="m 1787,2742.0293 c -15,-17 -17,-61 -17,-424 0,-389 1,-406 20,-423 24,-21 65,-14 80,15 7,13 10,152 8,421 -3,383 -4,401 -22,415 -27,19 -50,18 -69,-4 z"
       id="path91"
       inkscape:connector-curvature="0" />
    <path
       d="m 2420,2740.0293 c -19,-19 -20,-33 -20,-409 0,-226 4,-400 10,-415 12,-34 54,-44 80,-21 19,17 20,34 20,425 0,381 -1,408 -18,423 -25,22 -48,21 -72,-3 z"
       id="path93"
       inkscape:connector-curvature="0" />
    <path
       d="m 1356,2524.0293 c -9,-8 -16,-25 -17,-37 -3,-66 3,-345 7,-359 9,-29 52,-34 77,-10 19,20 21,32 20,184 -1,90 -2,173 -2,185 -1,27 -26,53 -51,53 -10,0 -26,-7 -34,-16 z"
       id="path95"
       inkscape:connector-curvature="0" />
    <path
       d="m 980,2360.0293 c -11,-11 -20,-29 -20,-40 0,-41 34,-60 110,-60 57,0 74,4 90,20 24,24 25,48 4,78 -13,19 -24,22 -90,22 -61,0 -78,-4 -94,-20 z"
       id="path97"
       inkscape:connector-curvature="0" />
    <path
       sodipodi:nodetypes="ccccc"
       d="m 2671.9998,2373.0293 c -34,-14 -33,-82 2,-105 14,-10 4790.0426,-10 4804.0426,0 37,24 37,91 0,106 -20,7 -4787.0426,7 -4806.0426,-1 z"
       id="path99"
       inkscape:connector-curvature="0" />
    <path
       d="m 4494.9967,2157.3594 c -28,-7 -91,-37 -124,-59 -11,-8 -9,-17 10,-51 12,-22 27,-41 32,-41 5,0 22,9 37,20 38,27 119,44 165,36 21,-4 51,-20 67,-36 23,-24 28,-37 28,-79 v -50 l -36,24 c -102,69 -233,27 -296,-95 -24,-44 -28,-64 -28,-129 1,-113 46,-193 135,-236 51,-23 132,-19 183,10 l 42,24 v -25 c 0,-23 3,-24 55,-24 h 55 v 269 c 0,148 -3,283 -7,301 -9,47 -87,125 -138,139 -44,12 -134,13 -180,2 z m 173,-321 42,-19 v -115 c 0,-113 -1,-116 -26,-132 -38,-25 -112,-29 -153,-7 -100,53 -94,224 9,275 45,23 75,22 128,-2 z"
       id="path101"
       inkscape:connector-curvature="0" />
    <path
       d="m 3123.9967,1947.3594 c -18,-11 -35,-24 -38,-30 -12,-19 -26,-12 -26,14 0,23 -3,25 -50,25 h -50 v -116 -115 l 52,3 c 51,3 52,4 59,38 9,43 56,87 104,96 85,16 145,-24 145,-97 0,-54 -38,-87 -150,-129 -165,-63 -223,-142 -189,-263 28,-103 162,-165 262,-124 18,8 38,21 46,30 18,23 31,21 31,-3 0,-17 7,-20 50,-20 h 51 l -3,108 -3,107 -46,3 -45,3 -15,-47 c -18,-60 -55,-89 -114,-89 -62,0 -99,30 -103,82 -4,52 13,66 147,123 155,65 201,126 189,250 -7,65 -45,122 -100,149 -59,28 -160,29 -204,2 z"
       id="path103"
       inkscape:connector-curvature="0" />
    <path
       d="m 3729.9967,1906.3594 v -50 h 60 60 v -150 -149 l -57,-3 -58,-3 v -50 -50 l 113,-3 112,-3 v 206 205 h 55 55 v 50 50 h -170 -170 z"
       id="path105"
       inkscape:connector-curvature="0" />
    <path
       d="m 5069.9967,1606.3594 v -350 h 55 55 v 300 300 h 170 170 v 50 50 h -225 -225 z"
       id="path107"
       inkscape:connector-curvature="0" />
    <path
       d="m 5709.9967,1944.3594 c 0,-7 13,-53 29,-103 41,-126 135,-426 161,-512 l 22,-73 h 63 c 35,0 66,4 70,9 7,12 215,676 215,688 0,2 -26,3 -58,3 h -58 l -23,-85 -24,-85 h -118 -118 l -21,73 c -12,39 -23,78 -25,85 -6,17 -115,17 -115,0 z m 360,-269 c 0,-17 -72,-253 -80,-262 -6,-7 -16,23 -70,211 l -19,62 h 85 c 52,0 84,-4 84,-11 z"
       id="path109"
       inkscape:connector-curvature="0" />
    <path
       d="m 6468.9967,1849.3594 c 0,-60 -1,-216 -1,-348 v -240 l 149,-3 c 167,-3 214,8 257,59 73,87 44,231 -54,270 -11,5 -5,11 20,21 41,17 87,68 96,104 11,42 -2,124 -23,152 -53,71 -124,92 -313,92 h -130 z m 283,-5 c 104,-31 104,-159 0,-188 -20,-5 -67,-10 -104,-10 h -68 v 105 105 h 66 c 37,0 84,-5 106,-12 z m -5,-308 c 57,-20 76,-111 34,-154 -18,-18 -36,-22 -111,-24 l -90,-4 v 96 96 h 69 c 37,0 82,-5 98,-10 z"
       id="path111"
       inkscape:connector-curvature="0" />
    <path
       d="m 3829.9967,1321.3594 v -65 h 70 70 v 65 65 h -70 -70 z"
       id="path113"
       inkscape:connector-curvature="0" />
    <text
       id="text32"
       y="2769.3384"
       x="2950.9182"
       style="font-style:normal;font-weight:normal;font-size:292.949px;line-height:1.25;font-family:sans-serif;fill:#f33535;fill-opacity:1;stroke:none;stroke-width:7.32372"
       xml:space="preserve"><tspan
         style="font-style:normal;font-variant:normal;font-weight:normal;font-stretch:normal;font-family:'Kohinoor Telugu';-inkscape-font-specification:'Kohinoor Telugu';fill:#f33535;fill-opacity:1;stroke-width:7.32372"
         y="2769.3384"
         x="2950.9182"
         id="tspan30"
         sodipodi:role="line">Serial data processing software </tspan></text>
    <text
       style="fill:black;fill-opacity:1;line-height:1.25;stroke:none;font-family:sans-serif;font-style:normal;font-weight:normal;font-size:292.94873151000001599px;white-space:pre;shape-inside:url(#rect36);"
       id="text34"
       xml:space="preserve" />
  </g>
</svg>
